<?xml version="1.0" encoding="UTF-8"?><svg xmlns="http://www.w3.org/2000/svg" width="260" height="336" viewBox="0 0 260 336"><g id="Tekstas"><rect id="Fonas" width="260" height="336" fill="#fff" stroke-width="0"/><text transform="translate(61 311.65)" font-family="Arial-BoldMT, Arial" font-size="11" font-weight="700"><tspan x="0" y="0">Greitkelis | Expressway</tspan></text><text transform="translate(61 329.65)" font-family="Arial-BoldMT, Arial" font-size="11" font-weight="700"><tspan x="0" y="0">Automagistralė | Motorway</tspan></text><text transform="translate(61 281.65)" font-family="Arial-BoldMT, Arial" font-size="11" font-weight="700"><tspan x="0" y="0">Riba tarp ruožų (atkarpų)</tspan><tspan x="0" y="12">Boundary between sections</tspan></text><text transform="translate(61 251.65)" font-family="Arial-BoldMT, Arial" font-size="11" font-weight="700"><tspan x="0" y="0">Priešprojektinė stadija</tspan><tspan x="0" y="12">Pre-design phase</tspan></text><text transform="translate(61 221.65)" font-family="Arial-BoldMT, Arial" font-size="11" font-weight="700"><tspan x="0" y="0">Vyksta projektavimas</tspan><tspan x="0" y="12">Design in progress</tspan></text><text transform="translate(61 191.65)" font-family="Arial-BoldMT, Arial" font-size="11" font-weight="700"><tspan x="0" y="0">Darbų konkursas</tspan><tspan x="0" y="12">Build tender</tspan></text><text transform="translate(61 161.65)" font-family="Arial-BoldMT, Arial" font-size="11" font-weight="700"><tspan x="0" y="0">Vyksta darbai</tspan><tspan x="0" y="12">Contruction in progress</tspan></text><text transform="translate(61 131.65)" font-family="Arial-BoldMT, Arial" font-size="11" font-weight="700"><tspan x="0" y="0">Veikiantis (užbaigtas) kelias</tspan><tspan x="0" y="12">Open (finished) roadway</tspan></text><text transform="translate(61 101.65)" font-family="Arial-BoldMT, Arial" font-size="11" font-weight="700"><tspan x="0" y="0">Sankryžos, žiedai, apsisukimai</tspan><tspan x="0" y="12">Intersections, roundabouts, u-turns</tspan></text><text transform="translate(61 71.65)" font-family="Arial-BoldMT, Arial" font-size="11" font-weight="700"><tspan x="0" y="0">Dalinė sankryža, nuovaža/įvaža</tspan><tspan x="0" y="12">Partial junction, exit/entrance</tspan></text><text transform="translate(61 41.65)" font-family="Arial-BoldMT, Arial" font-size="11" font-weight="700"><tspan x="0" y="0">Dviejų lygių sankryža</tspan><tspan x="0" y="12">2-level junction</tspan></text><text transform="translate(111 23.33)" font-family="Arial-BoldMT, Arial" font-size="18" font-weight="700"><tspan x="0" y="0">LEGENDA</tspan></text><text transform="translate(49.05 30.19) rotate(-60) scale(1.04 1)" font-family="Arial-BoldMT, Arial" font-size="12" font-weight="700"><tspan x="0" y="0">2x2+</tspan></text><text transform="translate(36.05 30.19) rotate(-60) scale(1.04 1)" font-family="Arial-BoldMT, Arial" font-size="12" font-weight="700"><tspan x="0" y="0">2x2</tspan></text><text transform="translate(23.04 30.14) rotate(-60) scale(1.04 1)" font-family="Arial-BoldMT, Arial" font-size="12" font-weight="700"><tspan x="0" y="0">2+1</tspan></text><text transform="translate(10.04 30.14) rotate(-60) scale(1.04 1)" font-family="Arial-BoldMT, Arial" font-size="12" font-weight="700"><tspan x="0" y="0">1+1</tspan></text></g><g id="Keliai_išorė"><rect id="_2x2_bendras" x="45" y="33" width="8" height="303" fill="#bcbec0" stroke-width="0"/><rect id="_2x2_bendras-2" x="33" y="33" width="6" height="303" fill="#bcbec0" stroke-width="0"/><rect id="_2_1_bendras" x="21" y="33" width="4" height="265" fill="#bcbec0" stroke-width="0"/><rect id="_1_1_bendras" x="9" y="33" width="2" height="265" fill="#bcbec0" stroke-width="0"/><rect id="_2x2_priešprojektinis" x="33" y="239" width="6" height="30" fill="#ff00c5" stroke-width="0"/><rect id="_1_1_priešprojektinis" x="9" y="239" width="2" height="30" fill="#ff00c5" stroke-width="0"/><rect id="_2_1_priešprojektinis" x="21" y="239" width="4" height="30" fill="#ff00c5" stroke-width="0"/><rect id="_2x2_priešprojektinis-2" x="45" y="239" width="8" height="30" fill="#ff00c5" stroke-width="0"/><rect id="_2x2_projektuojamas" x="45" y="209" width="8" height="30" fill="#00c5ff" stroke-width="0"/><rect id="_2x2_projektuojamas-2" x="33" y="209" width="6" height="30" fill="#00c5ff" stroke-width="0"/><rect id="_2_1_projektuojamas" x="21" y="209" width="4" height="30" fill="#00c5ff" stroke-width="0"/><rect id="_1_1_projektuojamas" x="9" y="209" width="2" height="30" fill="#00c5ff" stroke-width="0"/><rect id="_2x2_konkursas" x="45" y="179" width="8" height="30" fill="#fa0" stroke-width="0"/><rect id="_2x2_konkursas-2" x="33" y="179" width="6" height="30" fill="#fa0" stroke-width="0"/><rect id="_2_1_konkursas" x="21" y="179" width="4" height="30" fill="#fa0" stroke-width="0"/><rect id="_1_1_konkursas" x="9" y="179" width="2" height="30" fill="#fa0" stroke-width="0"/><rect id="_2x2_darbai" x="45" y="149" width="8" height="30" fill="red" stroke-width="0"/><rect id="_2x2_darbai-2" x="33" y="149" width="6" height="30" fill="red" stroke-width="0"/><rect id="_2_1_darbai" x="21" y="149" width="4" height="30" fill="red" stroke-width="0"/><rect id="_1_1_darbai" x="9" y="149" width="2" height="30" fill="red" stroke-width="0"/><rect id="_2x2_veikiantis" x="45" y="119" width="8" height="30" fill="#38a800" stroke-width="0"/><rect id="_2x2_veikiantis-2" x="33" y="119" width="6" height="30" fill="#38a800" stroke-width="0"/><rect id="_2_1_veikiantis" x="21" y="119" width="4" height="30" fill="#38a800" stroke-width="0"/><rect id="_1_1_veikiantis" x="9" y="119" width="2" height="30" fill="#38a800" stroke-width="0"/></g><g id="Keliai_vidus"><rect id="_2x2_vidus" x="48" y="32" width="2" height="304" fill="#fff" stroke-width="0"/><rect id="_2x2_vidus-2" x="35" y="32" width="2" height="304" fill="#fff" stroke-width="0"/><rect id="_2_1_vidus" x="22.5" y="32" width="1" height="267" fill="#fff" stroke-width="0"/><rect id="_2x2_vidus_H" x="35" y="317" width="2" height="19" fill="#ff0" stroke-width="0"/><rect id="_2x2_vidus_G" x="35" y="298" width="2" height="19" fill="#ffff96" stroke-width="0"/><rect id="_2x2_vidus_H-2" x="48" y="317" width="2" height="19" fill="#ff0" stroke-width="0"/><rect id="_2x2_vidus_G-2" x="48" y="298" width="2" height="19" fill="#ffff96" stroke-width="0"/></g><g id="Sankryžos"><rect x="43" y="282.5" width="12" height="2" stroke-width="0"/><rect x="31" y="282.5" width="10" height="2" stroke-width="0"/><rect x="19" y="282.5" width="8" height="2" stroke-width="0"/><rect x="7" y="282.5" width="6" height="2" stroke-width="0"/><g id="xsan_2x2_"><polygon points="51.25 101.1 46.75 101.1 44.5 105 46.75 108.9 51.25 108.9 53.5 105 51.25 101.1" fill="#fff" stroke-width="0"/><polygon points="51 101.53 47 101.53 45 105 47 108.46 51 108.46 53 105 51 101.53" fill="#bcbec0" stroke-width="0"/><polygon points="50 103.27 48 103.27 47 105 48 106.73 50 106.73 51 105 50 103.27" fill="#fff" stroke-width="0"/></g><g id="xsan_2x2"><polygon points="37.75 101.97 34.25 101.97 32.5 105 34.25 108.03 37.75 108.03 39.5 105 37.75 101.97" fill="#fff" stroke-width="0"/><polygon points="37.5 102.4 34.5 102.4 33 105 34.5 107.6 37.5 107.6 39 105 37.5 102.4" fill="#bcbec0" stroke-width="0"/><polygon points="36.75 103.7 35.25 103.7 34.5 105 35.25 106.3 36.75 106.3 37.5 105 36.75 103.7" fill="#fff" stroke-width="0"/></g><g id="xsan_2_1"><polygon points="24.25 102.83 21.75 102.83 20.5 105 21.75 107.17 24.25 107.17 25.5 105 24.25 102.83" fill="#fff" stroke-width="0"/><polygon points="24 103.27 22 103.27 21 105 22 106.73 24 106.73 25 105 24 103.27" fill="#bcbec0" stroke-width="0"/><polygon points="23.5 104.13 22.5 104.13 22 105 22.5 105.87 23.5 105.87 24 105 23.5 104.13" fill="#fff" stroke-width="0"/></g><g id="nuov_2x2_"><circle cx="49" cy="75" r="4.5" fill="#fff" stroke-width="0"/><path d="m49,71c2.21,0,4,1.79,4,4s-1.79,4-4,4" fill="#bcbec0" stroke-width="0"/><path d="m49,77.03c-1.12,0-2.03-.91-2.03-2.03s.91-2.02,2.03-2.02" fill="#fff" stroke="#231f20" stroke-miterlimit="10" stroke-width=".05"/><circle cx="49" cy="75" r="2" fill="#fff" stroke-width="0"/></g><g id="nuov_2x2"><circle cx="36" cy="75" r="3.5" fill="#fff" stroke-width="0"/><path d="m36,72c1.66,0,3,1.34,3,3s-1.34,3-3,3" fill="#bcbec0" stroke-width="0"/><path d="m36,76.52c-.84,0-1.53-.68-1.53-1.52s.68-1.53,1.53-1.53" fill="#fff" stroke="#231f20" stroke-miterlimit="10" stroke-width=".05"/><circle cx="36" cy="75" r="1.5" fill="#fff" stroke-width="0"/></g><g id="nuov_2_1"><circle cx="23" cy="75" r="2.5" fill="#fff" stroke-width="0"/><path d="m23,73c1.1,0,2,.9,2,2s-.9,2-2,2" fill="#bcbec0" stroke-width="0"/><path d="m23,76.03c-.57,0-1.03-.46-1.03-1.02s.46-1.03,1.02-1.03" fill="#fff" stroke="#231f20" stroke-miterlimit="10" stroke-width=".05"/><circle cx="23" cy="75" r="1" fill="#fff" stroke-width="0"/></g><g id="sankr_2x2_"><circle cx="49" cy="45" r="4.5" fill="#fff" stroke-width="0"/><circle cx="49" cy="45" r="4" fill="#bcbec0" stroke-width="0"/><circle cx="49" cy="45" r="2" fill="#fff" stroke-width="0"/></g><g id="sankr_2x2"><circle cx="36" cy="45" r="3.5" fill="#fff" stroke-width="0"/><circle cx="36" cy="45" r="3" fill="#bcbec0" stroke-width="0"/><circle cx="36" cy="45" r="1.5" fill="#fff" stroke-width="0"/></g><g id="sankr_2_1"><circle cx="23" cy="45" r="2.5" fill="#fff" stroke-width="0"/><circle cx="23" cy="45" r="2" fill="#bcbec0" stroke-width="0"/><circle cx="23" cy="45" r="1" fill="#fff" stroke-width="0"/></g><g id="sankr_1_1"><circle cx="10" cy="45" r="2" fill="#fff" stroke-width="0"/><circle cx="10" cy="45" r="1.5" fill="#bcbec0" stroke-width="0"/></g></g></svg>