<?xml version="1.0" encoding="UTF-8"?><svg id="legenda_x5F_lt" xmlns="http://www.w3.org/2000/svg" viewBox="0 0 260 295"><defs><style>.cls-1{fill:#ff00c5;}.cls-2{font-size:12px;}.cls-2,.cls-3,.cls-4{font-family:Arial-BoldMT, Arial;font-weight:700;}.cls-5,.cls-6{fill:#fff;}.cls-3{font-size:11px;}.cls-7{fill:red;}.cls-4{font-size:18px;}.cls-8{fill:#bcbec0;}.cls-9{fill:#00c5ff;}.cls-10{fill:#fa0;}.cls-11{fill:#ffff96;}.cls-6{stroke:#231f20;stroke-miterlimit:10;stroke-width:.05px;}.cls-12{fill:#38a800;}.cls-13{fill:#ff0;}</style></defs><g id="Tekstas-2"><rect id="Fonas" class="cls-5" width="260" height="295"/><text class="cls-3" transform="translate(61 268.95)"><tspan x="0" y="0">Greitkelis</tspan></text><text class="cls-3" transform="translate(61 288.95)"><tspan x="0" y="0">Automagistralė</tspan></text><text class="cls-3" transform="translate(61 248.95)"><tspan x="0" y="0">Riba tarp ruožų (atkarpų)</tspan></text><text class="cls-3" transform="translate(61 228.95)"><tspan x="0" y="0">Priešprojektinė stadija</tspan></text><text class="cls-3" transform="translate(61 208.95)"><tspan x="0" y="0">Vyksta projektavimas</tspan></text><text class="cls-3" transform="translate(61 188.95)"><tspan x="0" y="0">Darbų konkursas</tspan></text><text class="cls-3" transform="translate(61 168.95)"><tspan x="0" y="0">Vyksta darbai</tspan></text><text class="cls-3" transform="translate(61 148.95)"><tspan x="0" y="0">Veikiantis (užbaigtas) kelias</tspan></text><text class="cls-3" transform="translate(61 128.95)"><tspan x="0" y="0">Pavienis apsisukimas</tspan></text><text class="cls-3" transform="translate(61 108.95)"><tspan x="0" y="0">Sankryža su apsisukimais</tspan></text><text class="cls-3" transform="translate(61 88.95)"><tspan x="0" y="0">Sankryžos, žiedai</tspan></text><text class="cls-3" transform="translate(61 68.95)"><tspan x="0" y="0">Dalinė sankryža, nuovaža/įvaža</tspan></text><text class="cls-3" transform="translate(61 48.95)"><tspan x="0" y="0">Dviejų lygių sankryža</tspan></text><text class="cls-4" transform="translate(111 23.33)"><tspan x="0" y="0">LEGENDA</tspan></text><text class="cls-2" transform="translate(49.05 30.19) rotate(-60) scale(1.04 1)"><tspan x="0" y="0">2x2+</tspan></text><text class="cls-2" transform="translate(36.05 30.19) rotate(-60) scale(1.04 1)"><tspan x="0" y="0">2x2</tspan></text><text class="cls-2" transform="translate(23.04 30.14) rotate(-60) scale(1.04 1)"><tspan x="0" y="0">2+1</tspan></text><text class="cls-2" transform="translate(10.04 30.14) rotate(-60) scale(1.04 1)"><tspan x="0" y="0">1+1</tspan></text></g><g id="Keliai_išorė-2"><rect id="_x32_x2_x2B__bendras" class="cls-8" x="45" y="33" width="8" height="262"/><rect id="_x32_x2_bendras" class="cls-8" x="33" y="33" width="6" height="262"/><rect id="_x32__x2B_1_bendras" class="cls-8" x="21" y="32.85" width="4" height="222.15"/><rect id="_x31__x2B_1_bendras" class="cls-8" x="9" y="32.85" width="2" height="222.15"/><rect id="_x32_x2_priešprojektinis" class="cls-1" x="33" y="215" width="6" height="20"/><rect id="_x31__x2B_1_priešprojektinis" class="cls-1" x="9" y="215" width="2" height="20"/><rect id="_x32__x2B_1_priešprojektinis" class="cls-1" x="21" y="215" width="4" height="20"/><rect id="_x32_x2_x2B__priešprojektinis" class="cls-1" x="45" y="215" width="8" height="20"/><rect id="_x32_x2_x2B__projektuojamas" class="cls-9" x="45" y="195" width="8" height="20"/><rect id="_x32_x2_projektuojamas" class="cls-9" x="33" y="195" width="6" height="20"/><rect id="_x32__x2B_1_projektuojamas" class="cls-9" x="21" y="195" width="4" height="20"/><rect id="_x31__x2B_1_projektuojamas" class="cls-9" x="9" y="195" width="2" height="20"/><rect id="_x32_x2_x2B__konkursas" class="cls-10" x="45" y="175" width="8" height="20"/><rect id="_x32_x2_konkursas" class="cls-10" x="33" y="175" width="6" height="20"/><rect id="_x32__x2B_1_konkursas" class="cls-10" x="21" y="175" width="4" height="20"/><rect id="_x31__x2B_1_konkursas" class="cls-10" x="9" y="175" width="2" height="20"/><rect id="_x32_x2_x2B__darbai" class="cls-7" x="45" y="155" width="8" height="20"/><rect id="_x32_x2_darbai" class="cls-7" x="33" y="155" width="6" height="20"/><rect id="_x32__x2B_1_darbai" class="cls-7" x="21" y="155" width="4" height="20"/><rect id="_x31__x2B_1_darbai" class="cls-7" x="9" y="155" width="2" height="20"/><rect id="_x32_x2_x2B__veikiantis" class="cls-12" x="45" y="135" width="8" height="20"/><rect id="_x32_x2_veikiantis" class="cls-12" x="33" y="135" width="6" height="20"/><rect id="_x32__x2B_1_veikiantis" class="cls-12" x="21" y="135" width="4" height="20"/><rect id="_x31__x2B_1_veikiantis" class="cls-12" x="9" y="135" width="2" height="20"/></g><g id="Keliai_vidus-2"><rect id="_x32_x2_x2B__vidus" class="cls-5" x="48" y="32" width="2" height="263"/><rect id="_x32_x2_vidus" class="cls-5" x="35" y="32" width="2" height="263"/><rect id="_x32__x2B_1_vidus" class="cls-5" x="22.5" y="32" width="1" height="223"/><rect id="_x32_x2_vidus_H" class="cls-13" x="35" y="275" width="2" height="20"/><rect id="_x32_x2_vidus_G" class="cls-11" x="35" y="255" width="2" height="20"/><rect id="_x32_x2_x2B__vidus_H" class="cls-13" x="48" y="275" width="2" height="20"/><rect id="_x32_x2_x2B__vidus_G" class="cls-11" x="48" y="255" width="2" height="20"/></g><g id="Sankryžos-2"><rect id="riba_2x2_x2B_" x="8" y="244" width="4" height="2"/><rect id="riba_2x2" x="21" y="244" width="4" height="2"/><rect id="riba_2_x2B_1" x="33" y="244" width="6" height="2"/><rect id="riba_1_x2B_1" x="45" y="244" width="8" height="2"/><g id="sankr_2x2_x2B__u"><circle class="cls-5" cx="49" cy="125" r="4.5"/><circle class="cls-8" cx="49" cy="125" r="4"/><circle class="cls-5" cx="49" cy="125" r="2"/><rect class="cls-5" x="48" y="125" width="2" height="4.2"/></g><g id="sankr_2x2_u"><circle class="cls-5" cx="36" cy="125" r="3.5"/><circle class="cls-8" cx="36" cy="125" r="3"/><circle class="cls-5" cx="36" cy="125" r="1.5"/><rect class="cls-5" x="35.25" y="125" width="1.5" height="3.2"/></g><g id="sankr_2_x2B_1_u"><circle class="cls-5" cx="23" cy="125" r="2.5"/><circle class="cls-8" cx="23" cy="125" r="2"/><circle class="cls-5" cx="23" cy="125" r="1"/><rect class="cls-5" x="22.5" y="125" width="1" height="2.2"/></g><g id="xsan_2x2_x2B__u"><polygon class="cls-5" points="51.25 101.1 46.75 101.1 44.5 105 46.75 108.9 51.25 108.9 53.5 105 51.25 101.1"/><polygon class="cls-8" points="51 101.53 47 101.53 45 105 47 108.46 51 108.46 53 105 51 101.53"/><polygon class="cls-5" points="50 103.27 48 103.27 47 105 48 106.73 50 106.73 51 105 50 103.27"/><rect class="cls-5" x="48" y="105" width="2" height="3.5"/></g><g id="xsan_2x2_u"><polygon class="cls-5" points="37.75 101.97 34.25 101.97 32.5 105 34.25 108.03 37.75 108.03 39.5 105 37.75 101.97"/><polygon class="cls-8" points="37.5 102.4 34.5 102.4 33 105 34.5 107.6 37.5 107.6 39 105 37.5 102.4"/><polygon class="cls-5" points="36.75 103.7 35.25 103.7 34.5 105 35.25 106.3 36.75 106.3 37.5 105 36.75 103.7"/><rect class="cls-5" x="35.25" y="105" width="1.5" height="2.7"/></g><g id="xsan_2_x2B_1_u"><polygon class="cls-5" points="24.25 102.83 21.75 102.83 20.5 105 21.75 107.17 24.25 107.17 25.5 105 24.25 102.83"/><polygon class="cls-8" points="24 103.27 22 103.27 21 105 22 106.73 24 106.73 25 105 24 103.27"/><polygon class="cls-5" points="23.5 104.13 22.5 104.13 22 105 22.5 105.87 23.5 105.87 24 105 23.5 104.13"/><rect class="cls-5" x="22.5" y="105" width="1" height="1.8"/></g><g id="xsan_2x2_x2B_"><polygon class="cls-5" points="51.25 81.1 46.75 81.1 44.5 85 46.75 88.9 51.25 88.9 53.5 85 51.25 81.1"/><polygon class="cls-8" points="51 81.53 47 81.53 45 85 47 88.46 51 88.46 53 85 51 81.53"/><polygon class="cls-5" points="50 83.27 48 83.27 47 85 48 86.73 50 86.73 51 85 50 83.27"/></g><g id="xsan_2x2"><polygon class="cls-5" points="37.75 81.97 34.25 81.97 32.5 85 34.25 88.03 37.75 88.03 39.5 85 37.75 81.97"/><polygon class="cls-8" points="37.5 82.4 34.5 82.4 33 85 34.5 87.6 37.5 87.6 39 85 37.5 82.4"/><polygon class="cls-5" points="36.75 83.7 35.25 83.7 34.5 85 35.25 86.3 36.75 86.3 37.5 85 36.75 83.7"/></g><g id="xsan_2_x2B_1"><polygon class="cls-5" points="24.25 82.83 21.75 82.83 20.5 85 21.75 87.17 24.25 87.17 25.5 85 24.25 82.83"/><polygon class="cls-8" points="24 83.27 22 83.27 21 85 22 86.73 24 86.73 25 85 24 83.27"/><polygon class="cls-5" points="23.5 84.13 22.5 84.13 22 85 22.5 85.87 23.5 85.87 24 85 23.5 84.13"/></g><g id="nuov_2x2_x2B_"><circle class="cls-5" cx="49" cy="65" r="4.5"/><path class="cls-8" d="M49,61c2.21,0,4,1.79,4,4s-1.79,4-4,4"/><path class="cls-6" d="M49,67.03c-1.12,0-2.03-.91-2.03-2.03s.91-2.02,2.03-2.02"/><circle class="cls-5" cx="49" cy="65" r="2"/></g><g id="nuov_2x2"><circle class="cls-5" cx="36" cy="65" r="3.5"/><path class="cls-8" d="M36,62c1.66,0,3,1.34,3,3s-1.34,3-3,3"/><path class="cls-6" d="M36,66.52c-.84,0-1.53-.68-1.53-1.52s.68-1.53,1.53-1.53"/><circle class="cls-5" cx="36" cy="65" r="1.5"/></g><g id="nuov_2_x2B_1"><circle class="cls-5" cx="23" cy="65" r="2.5"/><path class="cls-8" d="M23,63c1.1,0,2,.9,2,2s-.9,2-2,2"/><path class="cls-6" d="M23,66.03c-.57,0-1.03-.46-1.03-1.02s.46-1.03,1.02-1.03"/><circle class="cls-5" cx="23" cy="65" r="1"/></g><g id="sankr_2x2_x2B_"><circle class="cls-5" cx="49" cy="45" r="4.5"/><circle class="cls-8" cx="49" cy="45" r="4"/><circle class="cls-5" cx="49" cy="45" r="2"/></g><g id="sankr_2x2"><circle class="cls-5" cx="36" cy="45" r="3.5"/><circle class="cls-8" cx="36" cy="45" r="3"/><circle class="cls-5" cx="36" cy="45" r="1.5"/></g><g id="sankr_2_x2B_1"><circle class="cls-5" cx="23" cy="45" r="2.5"/><circle class="cls-8" cx="23" cy="45" r="2"/><circle class="cls-5" cx="23" cy="45" r="1"/></g><g id="sankr_1_x2B_1"><circle class="cls-5" cx="10" cy="45" r="2"/><circle class="cls-8" cx="10" cy="45" r="1.5"/></g></g></svg>